<?xml version="1.0" encoding="UTF-8" standalone="no"?>
<!-- Created with Inkscape (http://www.inkscape.org/) -->

<svg
   xmlns:dc="http://purl.org/dc/elements/1.1/"
   xmlns:cc="http://creativecommons.org/ns#"
   xmlns:rdf="http://www.w3.org/1999/02/22-rdf-syntax-ns#"
   xmlns:svg="http://www.w3.org/2000/svg"
   xmlns="http://www.w3.org/2000/svg"
   xmlns:sodipodi="http://sodipodi.sourceforge.net/DTD/sodipodi-0.dtd"
   xmlns:inkscape="http://www.inkscape.org/namespaces/inkscape"
   width="1000"
   height="460"
   viewBox="0 0 264.58333 121.70843"
   version="1.1"
   id="svg8"
   inkscape:version="0.92.2 5c3e80d, 2017-08-06"
   sodipodi:docname="zutan.svg"
   inkscape:export-filename="C:\Users\higuchi\Desktop\描画.svg.png"
   inkscape:export-xdpi="96"
   inkscape:export-ydpi="96">
  <defs
     id="defs2" />
  <sodipodi:namedview
     id="base"
     pagecolor="#ffffff"
     bordercolor="#666666"
     borderopacity="1.0"
     inkscape:pageopacity="1"
     inkscape:pageshadow="2"
     inkscape:zoom="0.35"
     inkscape:cx="-342.30789"
     inkscape:cy="876.73767"
     inkscape:document-units="mm"
     inkscape:current-layer="layer1"
     showgrid="false"
     units="px"
     inkscape:window-width="1596"
     inkscape:window-height="855"
     inkscape:window-x="4"
     inkscape:window-y="0"
     inkscape:window-maximized="1" />
  <metadata
     id="metadata5">
    <rdf:RDF>
      <cc:Work
         rdf:about="">
        <dc:format>image/svg+xml</dc:format>
        <dc:type
           rdf:resource="http://purl.org/dc/dcmitype/StillImage" />
        <dc:title></dc:title>
      </cc:Work>
    </rdf:RDF>
  </metadata>
  <g
     inkscape:label="レイヤー 1"
     inkscape:groupmode="layer"
     id="layer1"
     transform="translate(0,-175.29163)">
    <path
       id="rect10-8-8"
       style="fill:none;fill-opacity:0.66666667;stroke:#119b15;stroke-width:1.6614356;stroke-miterlimit:4;stroke-dasharray:none;stroke-dashoffset:36.58000183;stroke-opacity:1"
       d="m 132.21608,196.48659 125.77826,-9.9434 v 99.7129 l -125.77826,-9.94337 m 0,10e-6 -125.7782789,9.94337 v -99.71291 l 125.7782789,9.9434 m -0.0163,-5.27911 125.72451,-11.2773 V 293.0191 L 132.19978,281.7418 m 0,0 L 6.4752231,293.0191 V 179.93018 l 125.7245069,11.2773"
       inkscape:connector-curvature="0" />
    <flowRoot
       xml:space="preserve"
       id="flowRoot909"
       style="font-style:normal;font-variant:normal;font-weight:normal;font-stretch:normal;font-size:64px;line-height:1.25;font-family:Tunga;-inkscape-font-specification:Tunga;letter-spacing:0px;word-spacing:0px;fill:#000000;fill-opacity:1;stroke:none"
       transform="translate(-3.7041668,76.200042)"><flowRegion
         id="flowRegion911"
         style="font-size:64px"><rect
           id="rect913"
           width="711.1474"
           height="149.50258"
           x="167.68532"
           y="425.98969"
           style="font-size:64px" /></flowRegion><flowPara
         id="flowPara915" /></flowRoot>    <text
       xml:space="preserve"
       style="font-style:normal;font-variant:normal;font-weight:normal;font-stretch:normal;font-size:10.58333302px;line-height:1.25;font-family:Tunga;-inkscape-font-specification:Tunga;letter-spacing:0px;word-spacing:0px;fill:#000000;fill-opacity:1;stroke:none;stroke-width:0.26458332"
       x="58.302361"
       y="233.68427"
       id="text919"><tspan
         sodipodi:role="line"
         id="tspan917"
         x="58.302361"
         y="243.04803"
         style="font-style:normal;font-variant:normal;font-weight:normal;font-stretch:normal;font-size:70.55555725px;font-family:Latha;-inkscape-font-specification:Latha;stroke-width:0.26458332" /></text>
    <flowRoot
       xml:space="preserve"
       id="flowRoot3744"
       style="font-style:normal;font-variant:normal;font-weight:normal;font-stretch:normal;font-size:40px;line-height:1.25;font-family:Montserrat;-inkscape-font-specification:Montserrat;letter-spacing:0px;word-spacing:0px;fill:#000000;fill-opacity:1;stroke:none"
       transform="translate(-3.7041668,76.200042)"><flowRegion
         id="flowRegion3746"><rect
           id="rect3748"
           width="854.28571"
           height="271.42856"
           x="92.85714"
           y="366.85715" /></flowRegion><flowPara
         id="flowPara3750" /></flowRoot>    <g
       aria-label="zutan"
       style="font-style:normal;font-variant:normal;font-weight:normal;font-stretch:normal;font-size:56.44444275px;line-height:1.25;font-family:Montserrat;-inkscape-font-specification:Montserrat;letter-spacing:0px;word-spacing:0px;fill:#119b15;fill-opacity:1;stroke:none;stroke-width:0.26458332"
       id="text3754"
       transform="translate(-3.7041668,77.258376)">
      <path
         d="m 66.169007,169.61764 18.68311,-23.70667 v -2.65289 H 61.371229 v 3.38667 h 18.344444 l -18.683111,23.65022 v 2.65289 h 24.158222 v -3.33022 z"
         style="font-size:56.44444275px;fill:#119b15;fill-opacity:1;stroke-width:0.26458332"
         id="path4565"
         inkscape:connector-curvature="0" />
      <path
         d="m 115.88069,143.25808 v 15.57867 c 0,6.77333 -3.89467,10.78089 -10.10356,10.78089 -5.64444,0 -8.918221,-3.21733 -8.918221,-9.53911 v -16.82045 h -4.007555 v 17.21556 c 0,8.52311 4.967111,12.75644 12.530666,12.75644 4.74133,0 8.57956,-2.08844 10.668,-5.70089 v 5.41867 h 3.83822 v -29.68978 z"
         style="font-size:56.44444275px;fill:#119b15;fill-opacity:1;stroke-width:0.26458332"
         id="path4567"
         inkscape:connector-curvature="0" />
      <path
         d="m 145.39143,168.26297 c -1.12889,1.016 -2.76578,1.524 -4.40267,1.524 -3.33022,0 -5.13644,-1.91911 -5.13644,-5.41866 v -17.72356 h 9.03111 v -3.38667 h -9.03111 v -6.49111 h -4.00756 v 6.49111 h -5.30577 v 3.38667 h 5.30577 v 17.94933 c 0,5.47511 3.10445,8.636 8.69245,8.636 2.31422,0 4.68489,-0.67733 6.26533,-2.08844 z"
         style="font-size:56.44444275px;fill:#119b15;fill-opacity:1;stroke-width:0.26458332"
         id="path4569"
         inkscape:connector-curvature="0" />
      <path
         d="m 164.48376,143.03231 c -4.68489,0 -9.08756,1.46755 -12.07911,4.00755 l 1.80622,2.99156 c 2.42711,-2.14489 6.03955,-3.49956 9.87778,-3.49956 5.53155,0 8.41022,2.76578 8.41022,7.84578 v 1.80622 h -9.42622 c -8.52312,0 -11.45823,3.83822 -11.45823,8.41022 0,5.13645 4.12045,8.636 10.83734,8.636 4.91066,0 8.41022,-1.86266 10.21644,-4.91066 v 4.62844 h 3.83822 v -18.40089 c 0,-7.67644 -4.34622,-11.51466 -12.02266,-11.51466 z m -1.41111,27.03688 c -4.74134,0 -7.50712,-2.14488 -7.50712,-5.588 0,-3.048 1.86267,-5.30577 7.62,-5.30577 h 9.31334 v 4.85422 c -1.58045,3.89467 -4.91067,6.03955 -9.42622,6.03955 z"
         style="font-size:56.44444275px;fill:#119b15;fill-opacity:1;stroke-width:0.26458332"
         id="path4571"
         inkscape:connector-curvature="0" />
      <path
         d="m 202.5185,143.03231 c -5.13644,0 -9.144,2.08844 -11.28889,5.70088 v -5.47511 h -3.83822 v 29.68978 h 4.00756 v -15.57867 c 0,-6.77333 4.00755,-10.72444 10.38577,-10.72444 5.64445,0 8.91823,3.21733 8.91823,9.48267 v 16.82044 h 4.00755 v -17.21555 c 0,-8.52312 -4.96711,-12.7 -12.192,-12.7 z"
         style="font-size:56.44444275px;fill:#119b15;fill-opacity:1;stroke-width:0.26458332"
         id="path4573"
         inkscape:connector-curvature="0" />
    </g>
  </g>
</svg>
